<svg viewBox="0 0 448 512" xmlns="http://www.w3.org/2000/svg"><path d="m448 80v48c0 44.2-100.3 80-224 80s-224-35.8-224-80v-48c0-44.2 100.3-80 224-80s224 35.8 224 80zm-54.8 134.7c20.8-7.4 39.9-16.9 54.8-28.6v101.9c0 44.2-100.3 80-224 80s-224-35.8-224-80v-101.9c14.9 11.8 34 21.2 54.8 28.6 44.9 16 104.7 25.3 169.2 25.3s124.3-9.3 169.2-25.3zm-393.2 131.4c14.9 11.8 34 21.2 54.8 28.6 44.9 16 104.7 25.3 169.2 25.3s124.3-9.3 169.2-25.3c20.8-7.4 39.9-16.9 54.8-28.6v85.9c0 44.2-100.3 80-224 80s-224-35.8-224-80z"/></svg>