<svg viewBox="0 0 512 512" xmlns="http://www.w3.org/2000/svg"><path d="m428.3 3c11.6-6.4 26.2-2.3 32.6 9.3l4.8 8.7c19.3 34.7 19.8 75.7 3.4 110 26.7 28.6 42.9 66.9 42.9 109 0 18.5-3.1 36.3-8.9 52.8-6.1 17.3-28.5 16.3-36.8-.1l-11.7-23.4c-4.1-8.1-12.4-13.3-21.5-13.3h-73.1c-13.3 0-24-10.7-24-24v-80c0-13.3-10.7-24-24-24h-17.1c-21.3 0-30-23.9-10.8-32.9 20.6-9.7 43.6-15.1 67.9-15.1 28.3 0 54.8 7.3 77.8 20.2 5.5-18.2 3.7-38.4-6-55.8l-4.8-8.7c-6.4-11.6-2.3-26.2 9.3-32.6zm-257.1 342.5 92.8-185.5h40v80c0 26.5 21.5 48 48 48h76.2l23.9 47.8c-79.8 108.1-207.8 176.2-348.9 176.2h-58.8c-24.5 0-44.4-19.9-44.4-44.4 0-20.8 14.5-38.8 34.8-43.3l49.8-11.1c37.6-8.4 69.5-33.2 86.7-67.7z"/></svg>